<?xml version="1.0" encoding="utf-8"?>
<!-- Generator: Adobe Illustrator 15.0.0, SVG Export Plug-In . SVG Version: 6.00 Build 0)  -->
<!DOCTYPE svg PUBLIC "-//W3C//DTD SVG 1.1//EN" "http://www.w3.org/Graphics/SVG/1.1/DTD/svg11.dtd">
<svg version="1.1" id="Capa_1" xmlns="http://www.w3.org/2000/svg" xmlns:xlink="http://www.w3.org/1999/xlink" x="0px" y="0px"
	 width="63.554px" height="95.459px" viewBox="0 0 63.554 95.459" enable-background="new 0 0 63.554 95.459" xml:space="preserve">
<g>
	<path fill="#F29400" d="M15.628,63.168c-8.625,0-15.643-7.017-15.643-15.643s7.018-15.644,15.643-15.644S31.273,38.9,31.273,47.526
		S24.253,63.168,15.628,63.168z M15.628,37.08c-5.76,0-10.445,4.686-10.445,10.446c0,5.76,4.686,10.445,10.445,10.445
		s10.445-4.686,10.445-10.445C26.074,41.766,21.388,37.08,15.628,37.08z"/>
</g>
<g>
	<path fill="#BE0A26" d="M47.909,63.169c-8.625,0-15.643-7.017-15.643-15.643s7.018-15.644,15.643-15.644S63.554,38.9,63.554,47.526
		S56.534,63.169,47.909,63.169z M47.909,37.08c-5.76,0-10.445,4.686-10.445,10.446c0,5.76,4.686,10.445,10.445,10.445
		s10.445-4.686,10.445-10.445C58.354,41.766,53.669,37.08,47.909,37.08z"/>
</g>
<g>
	<g id="XMLID_3_">
		<g>
			<path fill="#F29400" d="M16.127,64.169c8.63,0,15.65,7.02,15.65,15.64c0,8.63-7.02,15.65-15.65,15.65
				c-8.62,0-15.64-7.02-15.64-15.65C0.487,71.189,7.507,64.169,16.127,64.169z M26.578,79.809c0-5.76-4.69-10.44-10.45-10.44
				c-5.76,0-10.44,4.68-10.44,10.44c0,5.76,4.68,10.45,10.44,10.45C21.888,90.259,26.578,85.569,26.578,79.809z"/>
			<path fill="#F29400" d="M16.127,69.369c5.76,0,10.45,4.68,10.45,10.44c0,5.76-4.69,10.45-10.45,10.45
				c-5.76,0-10.44-4.69-10.44-10.45C5.688,74.049,10.368,69.369,16.127,69.369z"/>
		</g>
		<g>
		</g>
	</g>
</g>
<g>
	<g id="XMLID_4_">
		<g>
			<path fill="#BE0A26" d="M48.423,64.169c8.62,0,15.64,7.02,15.64,15.64c0,8.63-7.02,15.65-15.64,15.65
				c-8.63,0-15.65-7.02-15.65-15.65C32.773,71.189,39.793,64.169,48.423,64.169z M58.863,79.809c0-5.76-4.69-10.44-10.44-10.44
				c-5.76,0-10.45,4.68-10.45,10.44c0,5.76,4.69,10.45,10.45,10.45C54.173,90.259,58.863,85.569,58.863,79.809z"/>
			<path fill="#BE0A26" d="M48.423,69.369c5.75,0,10.44,4.68,10.44,10.44c0,5.76-4.69,10.45-10.44,10.45
				c-5.76,0-10.45-4.69-10.45-10.45C37.973,74.049,42.663,69.369,48.423,69.369z"/>
		</g>
		<g>
		</g>
	</g>
</g>
<g>
	<g id="XMLID_1_">
		<g>
			<path fill="#BE0A26" d="M15.635-0.035c8.62,0,15.64,7.02,15.64,15.65c0,8.62-7.02,15.64-15.64,15.64
				c-8.63,0-15.64-7.02-15.64-15.64C-0.005,6.985,7.005-0.035,15.635-0.035z M26.075,15.615c0-5.77-4.68-10.45-10.44-10.45
				c-5.76,0-10.45,4.68-10.45,10.45c0,5.76,4.69,10.44,10.45,10.44C21.395,26.055,26.075,21.375,26.075,15.615z"/>
			<path fill="#F29400" d="M15.635,5.165c5.76,0,10.44,4.68,10.44,10.45c0,5.76-4.68,10.44-10.44,10.44
				c-5.76,0-10.45-4.68-10.45-10.44C5.185,9.845,9.875,5.165,15.635,5.165z"/>
		</g>
		<g>
		</g>
	</g>
</g>
<g>
	<g id="XMLID_2_">
		<g>
			<path fill="#F29400" d="M47.915,0c8.62,0,15.64,7.02,15.64,15.65c0,8.62-7.02,15.64-15.64,15.64c-8.63,0-15.64-7.02-15.64-15.64
				C32.275,7.02,39.285,0,47.915,0z M58.355,15.65c0-5.77-4.68-10.45-10.44-10.45c-5.76,0-10.45,4.68-10.45,10.45
				c0,5.76,4.69,10.44,10.45,10.44C53.675,26.09,58.355,21.41,58.355,15.65z"/>
			<path fill="#BE0A26" d="M47.915,5.2c5.76,0,10.44,4.68,10.44,10.45c0,5.76-4.68,10.44-10.44,10.44
				c-5.76,0-10.45-4.68-10.45-10.44C37.465,9.88,42.155,5.2,47.915,5.2z"/>
		</g>
		<g>
		</g>
	</g>
</g>
</svg>
